<svg width="42" height="38" viewBox="0 0 42 38" fill="none" xmlns="http://www.w3.org/2000/svg">
<path d="M0 38V0H39.7895V4.22222H13.2632V33.7778H39.7895V38H0ZM17.6842 29.5556V8.44444H42V29.5556H17.6842ZM28.7368 22.1667C29.6947 22.1667 30.4868 21.8676 31.1132 21.2694C31.7395 20.6713 32.0526 19.9148 32.0526 19C32.0526 18.0852 31.7395 17.3287 31.1132 16.7306C30.4868 16.1324 29.6947 15.8333 28.7368 15.8333C27.7789 15.8333 26.9868 16.1324 26.3605 16.7306C25.7342 17.3287 25.4211 18.0852 25.4211 19C25.4211 19.9148 25.7342 20.6713 26.3605 21.2694C26.9868 21.8676 27.7789 22.1667 28.7368 22.1667Z" fill="#FFCD06"/>
</svg>
